<svg xmlns="http://www.w3.org/2000/svg" viewBox="0 0 30 30">
  <path d="M15 3 A 1.0001 1.0001 0 0 0 14.521484 3.1230469L3.5214844 9.1230469 A 1.0001 1.0001 0 1 0 4.4785156 10.876953L5 10.591797L5 20L4.5 20 A 1.0001 1.0001 0 1 0 4.5 22L5 22L25 22L25.5 22 A 1.0001 1.0001 0 1 0 25.5 20L25 20L25 10.591797L25.521484 10.876953 A 1.0001 1.0001 0 1 0 26.478516 9.1230469L15.478516 3.1230469 A 1.0001 1.0001 0 0 0 15 3 z M 14 8L16 8L16 9.6152344C17.35 9.9172344 18.252875 10.837078 18.296875 12.080078L16.611328 12.080078C16.528328 11.404078 15.899203 10.953125 15.033203 10.953125C14.137203 10.953125 13.544922 11.368484 13.544922 12.021484C13.544922 12.549484 13.952078 12.853406 14.955078 13.066406L15.988281 13.285156C17.709281 13.647156 18.449219 14.39075 18.449219 15.71875C18.449219 17.14875 17.532 18.107437 16 18.398438L16 20L14 20L14 18.402344C12.529 18.126344 11.604781 17.223344 11.550781 15.902344L13.28125 15.902344C13.36425 16.596344 14.065219 17.041016 15.074219 17.041016C16.005219 17.041016 16.664063 16.590359 16.664062 15.943359C16.664062 15.397359 16.2375 15.083422 15.1875 14.857422L14.072266 14.619141C12.512266 14.293141 11.746094 13.480781 11.746094 12.175781C11.746094 10.862781 12.615 9.9271406 14 9.6191406L14 8 z M 2.5 24 A 1.0001 1.0001 0 1 0 2.5 26L27.5 26 A 1.0001 1.0001 0 1 0 27.5 24L2.5 24 z" fill="#007BFF" />
</svg>